<?xml version="1.0" encoding="utf-8"?>
<!-- Generator: Adobe Illustrator 25.0.1, SVG Export Plug-In . SVG Version: 6.00 Build 0)  -->
<svg version="1.1" id="Layer_1" xmlns="http://www.w3.org/2000/svg" xmlns:xlink="http://www.w3.org/1999/xlink" x="0px" y="0px"
	 viewBox="0 0 29 22.5" style="enable-background:new 0 0 29 22.5;" xml:space="preserve">
<style type="text/css">
	.st0{fill:#FFFFFF;}
</style>
<g>
	<path class="st0" d="M5.3,4.7h2.9v9.8h5.1v2.4h-8V4.7z"/>
	<path class="st0" d="M14.8,4.7h5.1C22.6,4.7,24,6,24,7.8c0,1.4-0.9,2.4-2.3,2.6v0.1c1.5,0.1,2.7,1.2,2.7,2.9c0,2-1.5,3.4-4.2,3.4
		h-5.5V4.7z M19.3,9.7c1,0,1.7-0.5,1.7-1.4c0-0.8-0.6-1.3-1.6-1.3h-1.7v2.7H19.3z M19.5,14.5c1.3,0,1.9-0.5,1.9-1.4
		c0-0.9-0.7-1.5-1.8-1.5h-1.9v2.9H19.5z"/>
</g>
</svg>
